<?xml version="1.0" encoding="UTF-8" standalone="no"?>
<!-- Created with Inkscape (http://www.inkscape.org/) -->

<svg
   width="34.688927mm"
   height="34.688965mm"
   viewBox="0 0 34.688927 34.688965"
   version="1.1"
   id="svg5"
   inkscape:version="1.2.1 (9c6d41e410, 2022-07-14)"
   sodipodi:docname="comida.svg"
   xml:space="preserve"
   xmlns:inkscape="http://www.inkscape.org/namespaces/inkscape"
   xmlns:sodipodi="http://sodipodi.sourceforge.net/DTD/sodipodi-0.dtd"
   xmlns="http://www.w3.org/2000/svg"
   xmlns:svg="http://www.w3.org/2000/svg"><sodipodi:namedview
     id="namedview7"
     pagecolor="#ffffff"
     bordercolor="#000000"
     borderopacity="0.25"
     inkscape:showpageshadow="2"
     inkscape:pageopacity="0.0"
     inkscape:pagecheckerboard="0"
     inkscape:deskcolor="#d1d1d1"
     inkscape:document-units="mm"
     showgrid="false"
     inkscape:zoom="0.47660634"
     inkscape:cx="-127.98823"
     inkscape:cy="1697.4176"
     inkscape:window-width="1366"
     inkscape:window-height="715"
     inkscape:window-x="-8"
     inkscape:window-y="-8"
     inkscape:window-maximized="1"
     inkscape:current-layer="layer1" /><defs
     id="defs2" /><g
     inkscape:label="Camada 1"
     inkscape:groupmode="layer"
     id="layer1"
     transform="translate(146.00194,-520.36437)"><path
       d="m -128.65753,520.36438 c 9.57938,0 17.34452,7.9611 17.34452,17.78324 0,7.85529 -4.964,14.51902 -11.85151,16.87265 -0.87937,0.17518 -1.19157,-0.37985 -1.19157,-0.85334 0,-0.58625 0.0209,-2.50107 0.0209,-4.88073 0,-1.65812 -0.55502,-2.74041 -1.1777,-3.29197 3.86263,-0.44054 7.92124,-1.9443 7.92124,-8.77453 0,-1.94258 -0.67296,-3.52786 -1.78647,-4.77319 0.18038,-0.44922 0.77529,-2.25824 -0.16999,-4.70728 0,0 -1.45347,-0.47697 -4.76453,1.8229 -1.38583,-0.39371 -2.87052,-0.59144 -4.34481,-0.59838 -1.47428,0 -2.95724,0.20467 -4.34133,0.59838 -3.31454,-2.29987 -4.77148,-1.8229 -4.77148,-1.8229 -0.94181,2.44904 -0.34689,4.25806 -0.16824,4.70728 -1.10831,1.24533 -1.78649,2.83061 -1.78649,4.77319 0,6.81288 4.04995,8.33919 7.90216,8.78841 -0.49604,0.44402 -0.94526,1.22798 -1.10137,2.37792 -0.98864,0.45442 -3.50012,1.24012 -5.04726,-1.47775 0,0 -0.91752,-1.70842 -2.65891,-1.8333 0,0 -1.69109,-0.0226 -0.11794,1.08056 0,0 1.13607,0.54635 1.92524,2.60166 0,0 1.01812,3.17404 5.84337,2.09867 0.009,1.48643 0.0243,2.88785 0.0243,3.31106 0,0.47003 -0.31913,1.01985 -1.18462,0.85508 -6.89272,-2.35018 -11.86192,-9.01736 -11.86192,-16.87439 0,-9.82214 7.76687,-17.78324 17.34451,-17.78324"
       id="github-[#142]"
       style="fill:#6a68c7;fill-opacity:1;fill-rule:evenodd;stroke:none;stroke-width:10.5833" /></g></svg>
