<?xml version="1.0" encoding="UTF-8" standalone="no"?>
<!-- Created with Inkscape (http://www.inkscape.org/) -->

<svg
   width="34.688965mm"
   height="34.688965mm"
   viewBox="0 0 34.688965 34.688965"
   version="1.1"
   id="svg5"
   inkscape:version="1.2.1 (9c6d41e410, 2022-07-14)"
   sodipodi:docname="comida.svg"
   xml:space="preserve"
   xmlns:inkscape="http://www.inkscape.org/namespaces/inkscape"
   xmlns:sodipodi="http://sodipodi.sourceforge.net/DTD/sodipodi-0.dtd"
   xmlns="http://www.w3.org/2000/svg"
   xmlns:svg="http://www.w3.org/2000/svg"><sodipodi:namedview
     id="namedview7"
     pagecolor="#ffffff"
     bordercolor="#000000"
     borderopacity="0.25"
     inkscape:showpageshadow="2"
     inkscape:pageopacity="0.0"
     inkscape:pagecheckerboard="0"
     inkscape:deskcolor="#d1d1d1"
     inkscape:document-units="mm"
     showgrid="false"
     inkscape:zoom="0.47660634"
     inkscape:cx="-127.98823"
     inkscape:cy="1697.4176"
     inkscape:window-width="1366"
     inkscape:window-height="715"
     inkscape:window-x="-8"
     inkscape:window-y="-8"
     inkscape:window-maximized="1"
     inkscape:current-layer="layer1" /><defs
     id="defs2" /><g
     inkscape:label="Camada 1"
     inkscape:groupmode="layer"
     id="layer1"
     transform="translate(182.44268,-521.2534)"><g
       style="fill:#6a68c7;fill-opacity:1;stroke-width:6.10184"
       id="g20925"
       transform="matrix(0.0677519,0,0,0.0677519,-172.75416,511.42938)"
       inkscape:export-filename="..\..\..\Ãrea de Trabalho\projetos\cafe-site\images\linkedin.svg"
       inkscape:export-xdpi="578.32623"
       inkscape:export-ydpi="578.32623"><path
         d="m 113,145 c -141.4,0 -256,114.6 -256,256 0,141.4 114.6,256 256,256 C 254.4,657 369,542.4 369,401 369,259.6 254.4,145 113,145 Z M 41.4,508.1 H -8.5 V 348.4 H 41.4 Z M 15.1,328.4 h -0.4 c -18.1,0 -29.8,-12.2 -29.8,-27.7 0,-15.8 12.1,-27.7 30.5,-27.7 18.4,0 29.7,11.9 30.1,27.7 0.1,15.4 -11.6,27.7 -30.4,27.7 z M 241,508.1 h -56.6 v -82.6 c 0,-21.6 -8.8,-36.4 -28.3,-36.4 -14.9,0 -23.2,10 -27,19.6 -1.4,3.4 -1.2,8.2 -1.2,13.1 v 86.3 H 71.8 c 0,0 0.7,-146.4 0,-159.7 h 56.1 v 25.1 c 3.3,-11 21.2,-26.6 49.8,-26.6 35.5,0 63.3,23 63.3,72.4 z"
         id="path20917"
         style="fill:#6a68c7;fill-opacity:1;stroke-width:6.10184" /></g></g></svg>
