<?xml version="1.0" encoding="UTF-8" standalone="no"?>
<!-- Created with Inkscape (http://www.inkscape.org/) -->

<svg
   width="46.226761mm"
   height="43.096924mm"
   viewBox="0 0 46.226761 43.096924"
   version="1.1"
   id="svg5"
   inkscape:version="1.2.1 (9c6d41e410, 2022-07-14)"
   sodipodi:docname="comida.svg"
   xml:space="preserve"
   xmlns:inkscape="http://www.inkscape.org/namespaces/inkscape"
   xmlns:sodipodi="http://sodipodi.sourceforge.net/DTD/sodipodi-0.dtd"
   xmlns="http://www.w3.org/2000/svg"
   xmlns:svg="http://www.w3.org/2000/svg"><sodipodi:namedview
     id="namedview7"
     pagecolor="#ffffff"
     bordercolor="#000000"
     borderopacity="0.25"
     inkscape:showpageshadow="2"
     inkscape:pageopacity="0.0"
     inkscape:pagecheckerboard="0"
     inkscape:deskcolor="#d1d1d1"
     inkscape:document-units="mm"
     showgrid="false"
     inkscape:zoom="0.47660634"
     inkscape:cx="-584.33969"
     inkscape:cy="1697.4176"
     inkscape:window-width="1366"
     inkscape:window-height="715"
     inkscape:window-x="-8"
     inkscape:window-y="-8"
     inkscape:window-maximized="1"
     inkscape:current-layer="layer1" /><defs
     id="defs2"><clipPath
       clipPathUnits="userSpaceOnUse"
       id="clipPath7987-62-7-6-4-8-8-1-7"><rect
         style="fill:#ff0000;fill-opacity:1;fill-rule:evenodd;stroke-width:2;stroke-miterlimit:4.4"
         id="rect7989-2-6-1-4-3-4-0-3"
         width="81.649025"
         height="154.66209"
         x="78.469635"
         y="782.1601" /></clipPath><clipPath
       clipPathUnits="userSpaceOnUse"
       id="clipPath7987-62-7-6-4-8-8-1-7-4"><rect
         style="fill:#ff0000;fill-opacity:1;fill-rule:evenodd;stroke-width:2;stroke-miterlimit:4.4"
         id="rect7989-2-6-1-4-3-4-0-3-8"
         width="81.649025"
         height="154.66209"
         x="78.469635"
         y="782.1601" /></clipPath></defs><g
     inkscape:label="Camada 1"
     inkscape:groupmode="layer"
     id="layer1"
     transform="translate(57.148404,-521.77977)"><g
       id="g19711"
       transform="matrix(1.7230859,0,0,1.7230859,27.984926,-396.01921)"
       style="stroke-width:0.580354"
       inkscape:export-filename="..\..\..\..\..\..\sites\react-cafe-site\public\images\favicon.svg"
       inkscape:export-xdpi="35.165775"
       inkscape:export-ydpi="35.165775"><path
         id="path7263-8-7-0-8-1-9-3-4-9"
         clip-path="url(#clipPath7987-62-7-6-4-8-8-1-7)"
         style="fill:#a16670;fill-opacity:1;fill-rule:evenodd;stroke-width:7.26882;stroke-miterlimit:4.4"
         d="M 81.649289,782.73055 A 76.938507,76.938507 0 0 1 158.58832,859.66894 76.938507,76.938507 0 0 1 81.649289,936.6096 76.938507,76.938507 0 0 1 4.7102564,859.66894 76.938507,76.938507 0 0 1 81.649289,782.73055 Z m -0.08687,42.77006 a 31.866527,34.169845 0 0 0 -31.867235,34.16833 31.866527,34.169845 0 0 0 31.867235,34.1706 31.866527,34.169845 0 0 0 31.865111,-34.1706 31.866527,34.169845 0 0 0 -31.865111,-34.16833 z"
         transform="matrix(-0.1569597,0,0,0.16245551,-24.515505,405.50251)" /><path
         id="path7263-8-7-0-8-1-9-3-4-9-1"
         clip-path="url(#clipPath7987-62-7-6-4-8-8-1-7-4)"
         style="fill:#6a68c7;fill-opacity:1;fill-rule:evenodd;stroke-width:7.26882;stroke-miterlimit:4.4"
         d="M 81.649289,782.73055 A 76.938507,76.938507 0 0 1 158.58832,859.66894 76.938507,76.938507 0 0 1 81.649289,936.6096 76.938507,76.938507 0 0 1 4.7102564,859.66894 76.938507,76.938507 0 0 1 81.649289,782.73055 Z m -0.08687,42.77006 a 31.866527,34.169845 0 0 0 -31.867235,34.16833 31.866527,34.169845 0 0 0 31.867235,34.1706 31.866527,34.169845 0 0 0 31.865111,-34.1706 31.866527,34.169845 0 0 0 -31.865111,-34.16833 z"
         transform="matrix(-0.1569597,0,0,0.16245551,-10.263017,405.48952)" /><rect
         style="opacity:1;fill:#6a68c7;fill-opacity:1;fill-rule:evenodd;stroke-width:1.16071;stroke-miterlimit:4.4"
         id="rect19706"
         width="10.547664"
         height="5.5514016"
         x="-33.863552"
         y="542.39795" /></g></g></svg>
